<svg width="30" height="30" viewBox="0 0 30 30" fill="none" xmlns="http://www.w3.org/2000/svg">
<path d="M28.5938 15.0059H4.6875V4.06406C4.6875 3.5588 4.99512 3.10488 5.45625 2.91445C5.925 2.72402 6.45937 2.82656 6.81094 3.18533L6.99621 3.3706C6.23438 4.95878 6.49805 6.86132 7.81641 8.23242L8.68594 9.10253C8.33813 9.64658 8.3765 10.3658 8.85199 10.841C9.12305 11.1152 9.48633 11.25 9.84375 11.25C10.2012 11.25 10.5633 11.1126 10.8381 10.838L16.4631 5.21302C17.0124 4.6637 17.0124 3.77396 16.4631 3.22435C16.1958 2.95704 15.8514 2.82779 15.5045 2.8279C15.2344 2.8279 14.9627 2.90607 14.7246 3.05829L13.8574 2.18847C12.4863 0.870697 10.5762 0.610541 8.98828 1.37636L8.90039 1.28964C7.99219 0.382552 6.72656 -0.134127 5.45156 0.0302046C3.34629 0.30222 1.875 2.06308 1.875 4.06406V15.0035L1.40625 15.0059C0.629883 15.0059 0 15.6334 0 16.4098C0 17.1861 0.629883 17.8172 1.40625 17.8172H1.875V22.5023C1.875 24.0914 2.56348 25.606 3.75 26.6678V28.5955C3.75 29.373 4.37988 30 5.15625 30C5.93262 30 6.5625 29.3707 6.5625 28.5943V28.0305C6.87012 28.0891 7.18477 28.1181 7.5 28.1254H22.5C22.8149 28.1181 23.1299 28.0891 23.4375 28.0305V28.5943C23.4375 29.373 24.0645 30 24.8438 30C25.623 30 26.25 29.373 26.25 28.5937V26.666C27.4365 25.6043 28.125 24.0896 28.125 22.5006V17.8184H28.5938C29.3701 17.8184 30 17.1873 30 16.4109C30 15.6346 29.373 15.0059 28.5938 15.0059ZM11.8652 4.17714L12.6932 5.00507L10.6289 7.0664L9.80273 6.24023C9.23438 5.67187 9.23438 4.74609 9.80273 4.17714C10.3711 3.60761 11.2969 3.60644 11.8652 4.17714ZM25.3125 22.5C25.3125 24.0521 24.0527 25.3119 22.5 25.3119H7.5C5.94727 25.3119 4.6875 24.0527 4.6875 22.5V17.8184H25.3125V22.5Z" fill="#542686"/>
</svg>
