<svg width="30" height="20" viewBox="0 0 30 20" fill="none" xmlns="http://www.w3.org/2000/svg">
<path d="M28.6909 5.99676H28.7268V1.42659C28.7312 1.0674 28.5986 0.720045 28.356 0.455073C28.1135 0.190101 27.7792 0.0273501 27.421 0H2.28509C1.92691 0.0273501 1.59261 0.190101 1.35008 0.455073C1.10754 0.720045 0.974961 1.0674 0.979323 1.42659V6.06211C0.698183 6.14041 0.450318 6.30842 0.273522 6.54061C0.0967258 6.77281 0.000689503 7.05643 0 7.34827V19.1001C0 19.3149 0.0852755 19.5207 0.2371 19.6725C0.388924 19.8244 0.594855 19.9097 0.809567 19.9097H1.78889C2.00304 19.9088 2.20817 19.8231 2.35928 19.6714C2.5104 19.5197 2.59519 19.3143 2.59519 19.1001V17.7944H27.4047V19.1001C27.4047 19.3149 27.49 19.5207 27.6419 19.6725C27.7937 19.8244 27.9995 19.9097 28.2143 19.9097H29.1936C29.4077 19.9088 29.6129 19.8231 29.764 19.6714C29.9151 19.5197 30 19.3143 30 19.1001V7.34827C30.0026 6.99633 29.8669 6.65745 29.622 6.40465C29.3772 6.15185 29.0428 6.00531 28.6909 5.99676ZM16.0087 2.6018H26.1283V5.99676H16.0087V2.6018ZM3.60392 2.6018H13.3971V5.99676H3.60392V2.6018ZM2.6246 8.28185H27.4341V15.1926H2.6246V8.28185Z" fill="#542686"/>
</svg>
