<svg width="17" height="17" viewBox="0 0 17 17" fill="none" xmlns="http://www.w3.org/2000/svg">
<path fill-rule="evenodd" clip-rule="evenodd" d="M15.8148 3.17227C16.3969 2.59025 16.3945 1.64421 15.8095 1.05922C15.2245 0.474229 14.2784 0.471822 13.6964 1.05384L8.4325 6.31775L3.16861 1.05386C2.58659 0.471845 1.64054 0.474251 1.05555 1.05924C0.470566 1.64423 0.46816 2.59028 1.05018 3.1723L6.31407 8.43618L1.05032 13.6999C0.468301 14.2819 0.470707 15.228 1.0557 15.813C1.64068 16.398 2.58673 16.4004 3.16875 15.8184L8.4325 10.5546L13.6963 15.8184C14.2783 16.4004 15.2243 16.398 15.8093 15.813C16.3943 15.228 16.3967 14.282 15.8147 13.7L10.5509 8.43618L15.8148 3.17227Z" fill="#2F3234"/>
</svg>
