<svg width="58" height="52" viewBox="0 0 58 52" fill="none" xmlns="http://www.w3.org/2000/svg">
<path d="M46.6377 15.75H3.73517C2.97661 15.75 2.24911 16.0463 1.71272 16.5738C1.17634 17.1012 0.875 17.8166 0.875 18.5625V29.8125C0.885767 35.7223 3.15759 41.4118 7.23888 45.75H3.73517C2.97661 45.75 2.24911 46.0463 1.71272 46.5738C1.17634 47.1012 0.875 47.8166 0.875 48.5625C0.875 49.3084 1.17634 50.0238 1.71272 50.5512C2.24911 51.0787 2.97661 51.375 3.73517 51.375H45.6843C46.4429 51.375 47.1704 51.0787 47.7068 50.5512C48.2432 50.0238 48.5445 49.3084 48.5445 48.5625C48.5445 47.8166 48.2432 47.1012 47.7068 46.5738C47.1704 46.0463 46.4429 45.75 45.6843 45.75H42.1806C44.2324 43.565 45.8493 41.021 46.9476 38.25C49.6729 38.1649 52.258 37.0417 54.157 35.1175C56.0559 33.1933 57.1202 30.6188 57.125 27.9375V26.0625C57.125 23.3275 56.0201 20.7044 54.0533 18.7705C52.0866 16.8365 49.4191 15.75 46.6377 15.75ZM16.6059 45.75C13.6002 44.2655 11.0727 41.9894 9.30514 39.1754C7.53761 36.3614 6.59949 33.12 6.59534 29.8125V21.375H42.8242V29.8125C42.8214 31.4208 42.5969 33.0213 42.1568 34.5703C42.1329 34.6172 42.1329 34.6875 42.1091 34.7344C41.4147 37.101 40.2306 39.3011 38.6311 41.1966C37.0315 43.0922 35.0509 44.6424 32.8136 45.75H16.6059ZM51.4047 27.9375C51.4024 28.8756 51.1153 29.7916 50.5803 30.5683C50.0452 31.3449 49.2866 31.9468 48.4015 32.2969C48.4966 31.4721 48.5444 30.6426 48.5445 29.8125V21.7734C49.3953 22.1353 50.1196 22.7344 50.628 23.4967C51.1363 24.2589 51.4063 25.151 51.4047 26.0625V27.9375ZM12.3157 9.1875V3.5625C12.3157 2.81658 12.617 2.10121 13.1534 1.57376C13.6898 1.04632 14.4173 0.75 15.1758 0.75C15.9344 0.75 16.6619 1.04632 17.1983 1.57376C17.7347 2.10121 18.036 2.81658 18.036 3.5625V9.1875C18.036 9.93342 17.7347 10.6488 17.1983 11.1762C16.6619 11.7037 15.9344 12 15.1758 12C14.4173 12 13.6898 11.7037 13.1534 11.1762C12.617 10.6488 12.3157 9.93342 12.3157 9.1875ZM21.8496 9.1875V3.5625C21.8496 2.81658 22.1509 2.10121 22.6873 1.57376C23.2237 1.04632 23.9512 0.75 24.7097 0.75C25.4683 0.75 26.1958 1.04632 26.7322 1.57376C27.2686 2.10121 27.5699 2.81658 27.5699 3.5625V9.1875C27.5699 9.93342 27.2686 10.6488 26.7322 11.1762C26.1958 11.7037 25.4683 12 24.7097 12C23.9512 12 23.2237 11.7037 22.6873 11.1762C22.1509 10.6488 21.8496 9.93342 21.8496 9.1875ZM31.3835 9.1875V3.5625C31.3835 2.81658 31.6848 2.10121 32.2212 1.57376C32.7576 1.04632 33.4851 0.75 34.2436 0.75C35.0022 0.75 35.7297 1.04632 36.2661 1.57376C36.8025 2.10121 37.1038 2.81658 37.1038 3.5625V9.1875C37.1038 9.93342 36.8025 10.6488 36.2661 11.1762C35.7297 11.7037 35.0022 12 34.2436 12C33.4851 12 32.7576 11.7037 32.2212 11.1762C31.6848 10.6488 31.3835 9.93342 31.3835 9.1875Z" fill="#542686"/>
</svg>
