<svg width="112" height="19" viewBox="0 0 112 19" fill="none" xmlns="http://www.w3.org/2000/svg">
<g clip-path="url(#clip0_3440_16765)">
<path d="M32.9514 14.4154C32.9639 15.2286 32.7221 16.0253 32.2598 16.6932C31.7755 17.3872 31.11 17.9339 30.3366 18.2732C29.5235 18.6345 28.6433 18.8181 27.7542 18.812C27.2556 18.8073 26.7586 18.754 26.2703 18.6529C24.6757 18.3398 23.1877 17.6215 21.9484 16.5667L23.6483 14.701C25.3195 16.122 26.7385 16.4076 27.6101 16.4076C28.1849 16.4037 28.7526 16.2806 29.2777 16.046C29.6071 15.9144 29.8905 15.6881 30.0923 15.3954C30.2942 15.1028 30.4054 14.7568 30.4122 14.4009C30.4122 13.4211 29.5622 12.8209 27.6101 12.4702C27.5129 12.4413 25.1178 11.9966 24.2354 11.4904C23.6194 11.1702 23.1046 10.6838 22.7489 10.0859C22.3932 9.48808 22.2108 8.80244 22.2221 8.10616C22.2285 7.31599 22.4693 6.54565 22.9136 5.89341C23.3776 5.26161 23.9986 4.76296 24.7144 4.44717C25.496 4.10452 26.3435 3.94028 27.1959 3.9663C27.7248 3.96116 28.2526 4.01451 28.7699 4.12538C30.0037 4.40987 31.1575 4.97106 32.1446 5.76686L30.5671 7.60359C29.6575 6.83055 28.5165 6.3851 27.3256 6.33813C26.793 6.32261 26.264 6.43153 25.7805 6.6563C25.493 6.78004 25.2446 6.98006 25.0619 7.23486C24.8791 7.48966 24.769 7.78963 24.7432 8.10254C24.7432 9.04983 25.496 9.54879 27.4192 9.9682C27.4517 9.9682 30.034 10.5395 30.7616 10.948C31.2604 11.1832 31.7055 11.5192 32.069 11.9351C32.2035 12.0774 32.3241 12.2324 32.4291 12.3979C32.7811 13.0043 32.9617 13.6956 32.9514 14.3973" fill="#f3f3f3"/>
<path d="M112.004 14.4154C112.015 15.229 111.772 16.0256 111.308 16.6932C110.826 17.3889 110.16 17.936 109.385 18.2733C108.572 18.6348 107.692 18.8185 106.803 18.812C106.305 18.8074 105.81 18.7541 105.323 18.6529C103.728 18.3399 102.24 17.6217 101.001 16.5667L102.704 14.701C104.372 16.122 105.791 16.4076 106.666 16.4076C107.242 16.4037 107.811 16.2806 108.337 16.0461C108.667 15.9144 108.95 15.6881 109.152 15.3954C109.354 15.1028 109.465 14.7568 109.472 14.401C109.472 13.4211 108.618 12.8209 106.666 12.4702C106.572 12.4413 104.177 11.9966 103.295 11.4904C102.678 11.171 102.162 10.685 101.806 10.087C101.449 9.48899 101.267 8.80292 101.278 8.10618C101.284 7.31601 101.525 6.54567 101.969 5.89343C102.433 5.26128 103.054 4.76254 103.77 4.44719C104.551 4.10506 105.397 3.94083 106.248 3.96632C106.777 3.96118 107.305 4.01453 107.822 4.1254C109.056 4.40989 110.21 4.97108 111.197 5.76689L109.619 7.60361C108.71 6.83008 107.569 6.38457 106.378 6.33815C105.846 6.32253 105.319 6.43147 104.836 6.65632C104.548 6.77988 104.299 6.97975 104.116 7.23453C103.933 7.48931 103.822 7.78937 103.795 8.10257C103.795 9.04985 104.552 9.54881 106.475 9.96822C106.504 9.96822 109.09 10.5395 109.814 10.948C110.313 11.1832 110.758 11.5192 111.121 11.9351C111.249 12.0783 111.364 12.2332 111.463 12.3979C111.816 13.004 111.998 13.6953 111.989 14.3973" fill="#f3f3f3"/>
<path d="M37.4966 4.19775H34.7882V18.6855H37.4966V4.19775Z" fill="#f3f3f3"/>
<path d="M42.4957 0.0939941H39.7872V18.6854H42.4957V0.0939941Z" fill="#f3f3f3"/>
<path d="M83.187 12.3075C83.3649 11.2927 83.2179 10.2473 82.7671 9.32163C82.3162 8.39592 81.5847 7.63747 80.6775 7.15524C79.7704 6.67302 78.7344 6.49182 77.7183 6.63768C76.7021 6.78354 75.7582 7.24895 75.0221 7.96707C74.2859 8.68518 73.7954 9.61904 73.6211 10.6345C73.4467 11.65 73.5974 12.6948 74.0516 13.6189C74.5057 14.543 75.24 15.2988 76.1488 15.7778C77.0576 16.2567 78.0943 16.4342 79.1099 16.2847C80.1182 16.1324 81.0536 15.6669 81.7849 14.9536C82.5161 14.2403 83.0064 13.3149 83.187 12.3075ZM83.367 4.19774H86.0791V18.6855H83.3742V17.0078C82.02 18.1467 80.3201 19.0036 78.5228 19.0036C76.5255 19.0036 74.6099 18.2071 73.1976 16.7893C71.7853 15.3715 70.9918 13.4485 70.9918 11.4434C70.9918 9.43831 71.7853 7.51534 73.1976 6.09752C74.6099 4.6797 76.5255 3.88318 78.5228 3.88318C80.3237 3.88318 82.02 4.73646 83.3742 5.87538L83.367 4.19774Z" fill="#f3f3f3"/>
<path d="M97.3738 4.19775V12.4847C97.3738 14.6071 96.16 16.3462 93.9846 16.3462C91.8093 16.3462 90.6207 14.6071 90.6207 12.4847V4.19775H87.9087V12.0328C87.9087 15.8508 90.0084 18.9892 93.9846 18.9892C97.9608 18.9892 100.082 15.8508 100.082 12.0328V4.19775H97.3738Z" fill="#f3f3f3"/>
<path d="M63.6733 3.88312C62.4683 3.85816 61.2848 4.20661 60.2842 4.88103V0.101196H57.5757V18.6854H60.2842V10.3984C60.2842 8.2797 61.4979 6.54059 63.6733 6.54059C65.8487 6.54059 67.0372 8.2797 67.0372 10.3984V18.6854H69.7492V10.8359C69.7492 7.01785 67.6459 3.88312 63.6733 3.88312Z" fill="#f3f3f3"/>
<path d="M55.7497 4.1977H52.2489L47.4947 10.5359V0.0939941H44.7827V18.6854H47.4947V15.0373L48.4708 13.7537L52.3137 18.6854H55.7497L50.232 11.4398L55.7497 4.1977Z" fill="#f3f3f3"/>
<path d="M37.5939 1.45711C37.5939 1.74315 37.5094 2.02276 37.3511 2.2606C37.1928 2.49843 36.9678 2.6838 36.7045 2.79326C36.4413 2.90272 36.1516 2.93136 35.8721 2.87556C35.5927 2.81976 35.336 2.68202 35.1345 2.47975C34.933 2.27749 34.7958 2.0198 34.7402 1.73926C34.6846 1.45871 34.7132 1.16792 34.8222 0.903654C34.9313 0.639388 35.1159 0.413514 35.3528 0.254599C35.5897 0.0956836 35.8683 0.0108643 36.1532 0.0108643C36.5353 0.0108643 36.9017 0.163235 37.1719 0.434458C37.4421 0.705681 37.5939 1.07354 37.5939 1.45711Z" fill="#f3f3f3"/>
<path d="M16.8052 7.88559V4.94972L14.954 3.86504L10.2719 1.14611L8.46024 0.101196L6.65942 1.14972L1.86565 3.93374L0.0144069 5.01842V12.0327H14.4858C14.5907 12.0382 14.6915 12.0758 14.7745 12.1404C14.8576 12.205 14.9189 12.2936 14.9504 12.3943C14.9598 12.4236 14.9659 12.4539 14.9684 12.4846V16.3714C14.9663 16.4022 14.9602 16.4326 14.9504 16.4618C14.9214 16.5579 14.8651 16.6433 14.7883 16.7076C14.7114 16.7719 14.6175 16.8121 14.5182 16.8234H2.31225C2.21257 16.813 2.11823 16.7731 2.04125 16.7087C1.96427 16.6443 1.90815 16.5584 1.88005 16.4618C1.8644 16.4114 1.85591 16.3591 1.85484 16.3063V14.4226H0V18.6854H16.8052V10.0911H2.33746C2.2305 10.0883 2.1271 10.052 2.04181 9.98711C1.95653 9.92225 1.89366 9.83217 1.86204 9.72955C1.84933 9.6848 1.84207 9.63867 1.84044 9.59216V6.42127C1.84041 6.31208 1.86902 6.20481 1.92339 6.11024C1.97776 6.01567 2.05598 5.93714 2.15018 5.88255L2.33026 5.77769L8.45304 2.21271L14.7523 5.90786C14.8229 5.94705 14.8817 6.00474 14.9222 6.07477C14.9628 6.1448 14.9838 6.22456 14.9828 6.30558V7.88198L16.8052 7.88559Z" fill="#f3f3f3"/>
</g>
<defs>
<clipPath id="clip0_3440_16765">
<rect width="112" height="19" fill="white"/>
</clipPath>
</defs>
</svg>
