<svg width="21" height="10" viewBox="0 0 21 10" fill="none" xmlns="http://www.w3.org/2000/svg">
<path fill-rule="evenodd" clip-rule="evenodd" d="M4 1.49796C4 0.670658 4.66725 0 5.49036 0H19.4003C20.2234 0 20.8907 0.670658 20.8907 1.49796C20.8907 2.32526 20.2234 2.99591 19.4003 2.99591H5.49036C4.66725 2.99591 4 2.32526 4 1.49796Z" fill="#2F3234"/>
<path fill-rule="evenodd" clip-rule="evenodd" d="M-1.30881e-07 8.50211C-5.85975e-08 7.67481 0.667255 7.00415 1.49036 7.00415L19.3746 7.00415C20.1977 7.00415 20.865 7.67481 20.865 8.50211C20.865 9.32941 20.1977 10.0001 19.3746 10.0001L1.49036 10.0001C0.667255 10.0001 -2.03165e-07 9.32941 -1.30881e-07 8.50211Z" fill="#2F3234"/>
</svg>
