<svg width="22" height="23" viewBox="0 0 22 23" fill="none" xmlns="http://www.w3.org/2000/svg">
<path fill-rule="evenodd" clip-rule="evenodd" d="M21.5111 7.25776C21.4606 6.11164 21.2752 5.3237 21.0097 4.64093C20.7358 3.9162 20.3145 3.26734 19.7624 2.72794C19.223 2.18015 18.5698 1.75449 17.8535 1.48488C17.1668 1.21938 16.383 1.03403 15.2368 0.983502C14.0822 0.92869 13.7156 0.916016 10.787 0.916016C7.85845 0.916016 7.49189 0.92869 6.34149 0.979222C5.19538 1.02975 4.40743 1.21526 3.72484 1.4806C2.99993 1.75449 2.35108 2.17587 1.81168 2.72794C1.26389 3.26734 0.838397 3.92047 0.568616 4.63682C0.303115 5.3237 0.117775 6.10736 0.0672422 7.25348C0.0124301 8.40815 -0.000244141 8.77472 -0.000244141 11.7033C-0.000244141 14.6319 0.0124301 14.9984 0.0629625 16.1488C0.113495 17.295 0.299 18.0829 0.564501 18.7657C0.838397 19.4904 1.26389 20.1393 1.81168 20.6787C2.35108 21.2264 3.00421 21.6521 3.72056 21.9217C4.40743 22.1872 5.1911 22.3726 6.33738 22.4231C7.48761 22.4738 7.85434 22.4863 10.7829 22.4863C13.7115 22.4863 14.0781 22.4738 15.2285 22.4231C16.3746 22.3726 17.1625 22.1872 17.8451 21.9217C19.2948 21.3613 20.4409 20.2151 21.0013 18.7657C21.2667 18.0788 21.4522 17.295 21.5027 16.1488C21.5532 14.9984 21.5659 14.6319 21.5659 11.7033C21.5659 8.77472 21.5616 8.40815 21.5111 7.25776ZM19.5686 16.0646C19.5222 17.118 19.3453 17.6869 19.1978 18.0661C18.8354 19.0058 18.0895 19.7516 17.1498 20.1141C16.7706 20.2616 16.1976 20.4385 15.1483 20.4848C14.0106 20.5354 13.6694 20.548 10.7913 20.548C7.91327 20.548 7.56777 20.5354 6.43416 20.4848C5.38072 20.4385 4.81186 20.2616 4.43262 20.1141C3.96499 19.9412 3.53933 19.6673 3.19383 19.3092C2.83566 18.9594 2.56177 18.538 2.38894 18.0704C2.24145 17.6911 2.06451 17.118 2.01825 16.0688C1.96756 14.9311 1.95505 14.5897 1.95505 11.7117C1.95505 8.83365 1.96756 8.48815 2.01825 7.35471C2.06451 6.30126 2.24145 5.7324 2.38894 5.35316C2.56177 4.88537 2.83566 4.45987 3.19811 4.11421C3.54773 3.75604 3.9691 3.48214 4.4369 3.30948C4.81614 3.16199 5.38928 2.98505 6.43844 2.93863C7.57616 2.8881 7.91755 2.87542 10.7954 2.87542C13.6777 2.87542 14.019 2.8881 15.1526 2.93863C16.206 2.98505 16.7749 3.16199 17.1541 3.30948C17.6217 3.48214 18.0474 3.75604 18.3929 4.11421C18.7511 4.46399 19.025 4.88537 19.1978 5.35316C19.3453 5.7324 19.5222 6.30538 19.5686 7.35471C19.6192 8.49243 19.6319 8.83365 19.6319 11.7117C19.6319 14.5897 19.6192 14.9268 19.5686 16.0646ZM10.7867 6.16218C7.72763 6.16218 5.24561 8.64404 5.24561 11.7033C5.24561 14.7626 7.72763 17.2444 10.7867 17.2444C13.846 17.2444 16.3279 14.7626 16.3279 11.7033C16.3279 8.64404 13.846 6.16218 10.7867 6.16218ZM10.7867 15.2977C8.80214 15.2977 7.19235 13.6881 7.19235 11.7033C7.19235 9.71855 8.80214 8.10892 10.7867 8.10892C12.7715 8.10892 14.3811 9.71855 14.3811 11.7033C14.3811 13.6881 12.7715 15.2977 10.7867 15.2977ZM16.5469 7.23668C17.2614 7.23668 17.8406 6.65745 17.8406 5.94309C17.8406 5.22855 17.2614 4.64949 16.5469 4.64949C15.8325 4.64949 15.2533 5.22855 15.2533 5.94309C15.2533 6.65745 15.8325 7.23668 16.5469 7.23668Z" fill="#F1F3F6"/>
</svg>
