<svg width="33" height="31" viewBox="0 0 33 31" fill="none" xmlns="http://www.w3.org/2000/svg">
<path d="M29.5988 27.6146C29.7372 27.7458 29.8478 27.9035 29.9243 28.0781C30.0008 28.2528 30.0415 28.441 30.0442 28.6316C30.0468 28.8223 30.0112 29.0116 29.9395 29.1883C29.8678 29.365 29.7615 29.5256 29.6268 29.6605C29.4921 29.7955 29.3317 29.9021 29.1551 29.9741C28.9786 30.0461 28.7894 30.082 28.5987 30.0797C28.408 30.0775 28.2198 30.037 28.045 29.9608C27.8702 29.8846 27.7124 29.7742 27.581 29.6361L16.2274 18.2682L5.04167 29.6147C4.90864 29.7494 4.75014 29.8565 4.5754 29.9294C4.40066 30.0024 4.21314 30.0398 4.02378 30.0396C3.74192 30.0399 3.46633 29.9568 3.23163 29.8007C2.99692 29.6447 2.81362 29.4227 2.70481 29.1626C2.59599 28.9026 2.56651 28.6163 2.6201 28.3395C2.67368 28.0628 2.80792 27.8081 3.00593 27.6075L14.2095 16.2467L12.3059 14.3431L12.0024 14.6467C11.5553 15.0941 11.0244 15.4492 10.4401 15.6913C9.85579 15.9335 9.2295 16.058 8.59701 16.058C7.96452 16.058 7.33823 15.9335 6.75392 15.6913C6.16962 15.4492 5.63873 15.0941 5.19164 14.6467L0.448772 9.9432C0.310037 9.81245 0.198884 9.65527 0.121842 9.4809C0.0447989 9.30653 0.00345371 9.11853 0.00020715 8.92792C-0.00303941 8.73732 0.0319047 8.548 0.102964 8.37111C0.174024 8.19421 0.279737 8.03322 0.413938 7.89782C0.54814 7.76243 0.708084 7.65533 0.884345 7.58271C1.06061 7.51009 1.24962 7.47355 1.44024 7.47511C1.63087 7.47667 1.81927 7.51628 1.99431 7.59177C2.16936 7.66727 2.32752 7.77699 2.45949 7.91456L7.20593 12.6218C7.3878 12.8046 7.60402 12.9497 7.84214 13.0487C8.08025 13.1477 8.33556 13.1986 8.59344 13.1986C8.85131 13.1986 9.10662 13.1477 9.34474 13.0487C9.58285 12.9497 9.79907 12.8046 9.98094 12.6218L10.2845 12.3182L4.17379 6.20401C4.03567 6.07255 3.92527 5.91477 3.84908 5.73997C3.7729 5.56517 3.73247 5.37678 3.7302 5.18612C3.72793 4.99545 3.76388 4.80622 3.83588 4.62965C3.90787 4.45309 4.01447 4.29282 4.14942 4.15811C4.28437 4.0234 4.44492 3.91712 4.62162 3.84544C4.79831 3.77375 4.98755 3.73802 5.17821 3.74063C5.36887 3.74324 5.55709 3.78412 5.73176 3.86061C5.90642 3.9371 6.06402 4.04766 6.19523 4.18601L12.3059 10.2969L12.6631 9.93971C13.0304 9.57206 13.2366 9.07352 13.2366 8.55386C13.2366 8.0342 13.0304 7.53584 12.6631 7.16819L7.92022 2.46814C7.78148 2.33739 7.67033 2.18021 7.59329 2.00584C7.51624 1.83146 7.47486 1.64347 7.47161 1.45286C7.46836 1.26225 7.50331 1.07294 7.57437 0.896044C7.64543 0.719148 7.75118 0.558328 7.88538 0.422934C8.01959 0.287541 8.17953 0.180265 8.35579 0.107644C8.53205 0.0350235 8.72106 -0.00151317 8.91169 4.79972e-05C9.10232 0.00160916 9.29071 0.0413889 9.46576 0.116887C9.64081 0.192385 9.79897 0.302102 9.93093 0.439676L14.6774 5.14322C15.5796 6.04831 16.0862 7.27414 16.0862 8.55212C16.0862 9.8301 15.5796 11.0559 14.6774 11.961L14.3202 12.3182L16.2095 14.2075L28.7988 1.44327C28.9315 1.30991 29.0893 1.20402 29.2631 1.13181C29.4368 1.05961 29.6231 1.02247 29.8113 1.02247C29.9995 1.02247 30.1858 1.05961 30.3595 1.13181C30.5333 1.20402 30.6911 1.30991 30.8238 1.44327C33.9917 4.61112 33.4667 9.07187 29.456 13.0862L24.6309 17.9182C24.4997 18.0566 24.3421 18.1673 24.1675 18.2438C23.9928 18.3203 23.8046 18.361 23.6139 18.3636C23.4233 18.3662 23.234 18.3307 23.0573 18.259C22.8806 18.1873 22.7201 18.0808 22.5851 17.9461C22.4502 17.8114 22.3436 17.6512 22.2716 17.4746C22.1996 17.298 22.1636 17.1088 22.1659 16.9181C22.1682 16.7275 22.2086 16.5392 22.2848 16.3644C22.361 16.1896 22.4714 16.0319 22.6095 15.9004L27.4345 11.0682C30.3345 8.16459 30.2631 6.00033 29.6452 4.66104L18.2166 16.2361L29.5988 27.6146Z" fill="#542686"/>
</svg>
