<svg width="24" height="30" viewBox="0 0 24 30" fill="none" xmlns="http://www.w3.org/2000/svg">
<path d="M22.0253 12.1519H5.6962V9.53928C5.6962 5.65068 8.14936 3.03797 11.7152 3.03797C14.3126 3.03797 16.3405 4.38607 17.2253 6.7329C17.2956 6.92091 17.4023 7.09325 17.5392 7.24004C17.6761 7.38682 17.8406 7.50523 18.0232 7.58845C18.2059 7.67167 18.4032 7.71803 18.6038 7.72501C18.8044 7.732 19.0044 7.69946 19.1924 7.62915C19.3804 7.55883 19.5527 7.45214 19.6995 7.31523C19.8463 7.17832 19.9647 7.01384 20.0479 6.83118C20.1311 6.64852 20.1775 6.45122 20.1845 6.25062C20.1915 6.05001 20.1589 5.85 20.0886 5.66199C18.7519 2.11516 15.5848 0 11.7114 0C6.41391 0 2.65823 3.92283 2.65823 9.53928V12.1519H1.51899C1.11613 12.1519 0.729788 12.312 0.444923 12.5968C0.160058 12.8817 0 13.268 0 13.6709V28.481C0 28.8839 0.160058 29.2702 0.444923 29.5551C0.729788 29.8399 1.11613 30 1.51899 30H22.0253C22.4282 30 22.8145 29.8399 23.0994 29.5551C23.3842 29.2702 23.5443 28.8839 23.5443 28.481V13.6709C23.5443 13.268 23.3842 12.8817 23.0994 12.5968C22.8145 12.312 22.4282 12.1519 22.0253 12.1519ZM20.5063 26.962H3.03797V15.1899H20.5063V26.962Z" fill="#542686"/>
</svg>
