<svg width="94" height="16" viewBox="0 0 94 16" fill="none" xmlns="http://www.w3.org/2000/svg">
<g clip-path="url(#clip0_3440_16005)">
<path d="M27.6555 12.1393C27.6661 12.8241 27.4631 13.4949 27.0752 14.0574C26.6686 14.6418 26.1102 15.1022 25.461 15.388C24.7786 15.6922 24.0399 15.8468 23.2937 15.8416C22.8752 15.8377 22.4581 15.7929 22.0483 15.7077C20.7099 15.444 19.4611 14.8391 18.4209 13.9509L19.8477 12.3798C21.2502 13.5764 22.4412 13.8169 23.1727 13.8169C23.6551 13.8136 24.1316 13.71 24.5723 13.5124C24.8488 13.4016 25.0866 13.211 25.256 12.9645C25.4254 12.7181 25.5188 12.4268 25.5245 12.1271C25.5245 11.302 24.8111 10.7965 23.1727 10.5012C23.0911 10.4768 21.081 10.1023 20.3404 9.67608C19.8234 9.40646 19.3913 8.99688 19.0928 8.49341C18.7943 7.98994 18.6411 7.41256 18.6506 6.82622C18.656 6.16082 18.8581 5.51211 19.231 4.96285C19.6205 4.43081 20.1416 4.01089 20.7424 3.74496C21.3983 3.45642 22.1097 3.31811 22.8251 3.34002C23.269 3.33569 23.712 3.38062 24.1461 3.47399C25.1817 3.71356 26.15 4.18613 26.9784 4.85629L25.6545 6.40301C24.891 5.75202 23.9334 5.37691 22.9339 5.33735C22.4869 5.32428 22.043 5.41601 21.6372 5.60529C21.3959 5.70949 21.1874 5.87792 21.034 6.09249C20.8806 6.30707 20.7882 6.55967 20.7666 6.82318C20.7666 7.62089 21.3984 8.04107 23.0125 8.39425C23.0397 8.39425 25.2071 8.87532 25.8177 9.21937C26.2364 9.41737 26.6099 9.70035 26.915 10.0506C27.0279 10.1705 27.1291 10.301 27.2172 10.4403C27.5127 10.9509 27.6642 11.5331 27.6555 12.124" fill="#542686"/>
<path d="M94.003 12.1393C94.0124 12.8244 93.8084 13.4953 93.4196 14.0575C93.0145 14.6433 92.4556 15.104 91.8054 15.388C91.1231 15.6925 90.3843 15.8471 89.638 15.8417C89.2206 15.8378 88.8045 15.7929 88.3957 15.7077C87.0573 15.4442 85.8084 14.8393 84.7683 13.9509L86.1981 12.3798C87.5977 13.5764 88.7886 13.8169 89.5232 13.8169C90.0065 13.8136 90.484 13.71 90.9257 13.5125C91.2022 13.4016 91.4401 13.211 91.6095 12.9646C91.7789 12.7181 91.8722 12.4268 91.8779 12.1271C91.8779 11.302 91.1615 10.7966 89.5232 10.5012C89.4446 10.4769 87.4344 10.1024 86.6938 9.67612C86.176 9.4072 85.7431 8.99786 85.444 8.4943C85.1449 7.99073 84.9915 7.41299 85.0011 6.82626C85.0064 6.16085 85.2085 5.51215 85.5814 4.96289C85.9706 4.43055 86.4918 4.01056 87.0928 3.745C87.7478 3.45689 88.4581 3.3186 89.1725 3.34006C89.6164 3.33573 90.0594 3.38065 90.4935 3.47402C91.5291 3.71359 92.4974 4.18617 93.3258 4.85632L92.0019 6.40304C91.2387 5.75165 90.2809 5.37648 89.2813 5.33739C88.8353 5.32424 88.3923 5.41597 87.9876 5.60533C87.746 5.70937 87.537 5.87769 87.3831 6.09224C87.2292 6.30678 87.1362 6.55947 87.114 6.82321C87.114 7.62093 87.7488 8.0411 89.363 8.39429C89.3871 8.39429 91.5575 8.87536 92.1651 9.21941C92.5838 9.41741 92.9573 9.70039 93.2624 10.0506C93.37 10.1712 93.4662 10.3016 93.5495 10.4403C93.8459 10.9507 93.9985 11.5329 93.9909 12.1241" fill="#542686"/>
<path d="M31.4704 3.53491H29.1973V15.7351H31.4704V3.53491Z" fill="#542686"/>
<path d="M35.666 0.0792236H33.3928V15.7352H35.666V0.0792236Z" fill="#542686"/>
<path d="M69.8177 10.3642C69.9671 9.50962 69.8437 8.62932 69.4653 7.84977C69.0869 7.07022 68.4729 6.43153 67.7116 6.02544C66.9503 5.61936 66.0807 5.46677 65.2279 5.5896C64.3751 5.71243 63.5829 6.10436 62.965 6.70908C62.3472 7.31381 61.9355 8.10022 61.7892 8.95535C61.6429 9.81048 61.7694 10.6903 62.1505 11.4685C62.5317 12.2467 63.1479 12.8832 63.9107 13.2865C64.6735 13.6899 65.5435 13.8393 66.3959 13.7134C67.2421 13.5852 68.0272 13.1932 68.641 12.5925C69.2547 11.9918 69.6662 11.2126 69.8177 10.3642ZM69.9689 3.53491H72.245V15.7351H69.9749V14.3223C68.8383 15.2814 67.4116 16.003 65.9032 16.003C64.2268 16.003 62.6192 15.3323 61.4338 14.1383C60.2484 12.9444 59.5825 11.325 59.5825 9.63653C59.5825 7.94802 60.2484 6.32868 61.4338 5.13473C62.6192 3.94077 64.2268 3.27002 65.9032 3.27002C67.4146 3.27002 68.8383 3.98857 69.9749 4.94766L69.9689 3.53491Z" fill="#542686"/>
<path d="M81.7244 3.53491V10.5134C81.7244 12.3007 80.7057 13.7652 78.88 13.7652C77.0542 13.7652 76.0567 12.3007 76.0567 10.5134V3.53491H73.7805V10.1328C73.7805 13.348 75.5428 15.9909 78.88 15.9909C82.2171 15.9909 83.9976 13.348 83.9976 10.1328V3.53491H81.7244Z" fill="#542686"/>
<path d="M53.4401 3.26998C52.4287 3.24897 51.4355 3.5424 50.5957 4.11032V0.0852051H48.3225V15.7351H50.5957V8.75657C50.5957 6.97236 51.6143 5.50785 53.4401 5.50785C55.2659 5.50785 56.2634 6.97236 56.2634 8.75657V15.7351H58.5396V9.12498C58.5396 5.90975 56.7743 3.26998 53.4401 3.26998Z" fill="#542686"/>
<path d="M46.7899 3.53498H43.8517L39.8616 8.87237V0.0792236H37.5854V15.7352H39.8616V12.6631L40.6808 11.5822L43.9061 15.7352H46.7899L42.1589 9.63355L46.7899 3.53498Z" fill="#542686"/>
<path d="M31.552 1.22704C31.552 1.46792 31.4811 1.70339 31.3483 1.90367C31.2154 2.10395 31.0266 2.26005 30.8056 2.35223C30.5847 2.4444 30.3416 2.46852 30.107 2.42153C29.8725 2.37454 29.657 2.25855 29.4879 2.08822C29.3188 1.9179 29.2037 1.70089 29.157 1.46464C29.1104 1.2284 29.1343 0.983518 29.2258 0.760978C29.3173 0.538439 29.4723 0.348229 29.6712 0.214405C29.87 0.0805821 30.1038 0.00915527 30.3429 0.00915527C30.6636 0.00915527 30.9711 0.137467 31.1979 0.365865C31.4246 0.594264 31.552 0.904039 31.552 1.22704Z" fill="#542686"/>
<path d="M14.1044 6.64049V4.16817L12.5507 3.25476L8.62102 0.965129L7.10056 0.0852051L5.58916 0.968174L1.56581 3.31261L0.0120915 4.22602V10.1328H12.1577C12.2458 10.1374 12.3303 10.169 12.4 10.2235C12.4697 10.2779 12.5212 10.3525 12.5476 10.4373C12.5556 10.462 12.5606 10.4875 12.5628 10.5134V13.7864C12.561 13.8124 12.5559 13.8379 12.5476 13.8626C12.5233 13.9435 12.476 14.0154 12.4116 14.0695C12.3471 14.1237 12.2683 14.1576 12.1849 14.167H1.94064C1.85698 14.1583 1.7778 14.1247 1.71319 14.0705C1.64858 14.0163 1.60149 13.9439 1.5779 13.8626C1.56476 13.8201 1.55764 13.7761 1.55674 13.7316V12.1453H0V15.7351H14.1044V8.49776H1.9618C1.87203 8.49543 1.78524 8.4648 1.71366 8.41018C1.64209 8.35556 1.58932 8.27971 1.56279 8.19329C1.55211 8.15561 1.54603 8.11676 1.54465 8.07759V5.40738C1.54463 5.31543 1.56864 5.22509 1.61427 5.14545C1.65991 5.06582 1.72555 4.99969 1.80461 4.95371L1.95575 4.86541L7.09451 1.86332L12.3814 4.97502C12.4407 5.00803 12.49 5.05661 12.524 5.11558C12.5581 5.17455 12.5757 5.24172 12.5748 5.30994V6.63744L14.1044 6.64049Z" fill="#542686"/>
</g>
<defs>
<clipPath id="clip0_3440_16005">
<rect width="94" height="16" fill="white"/>
</clipPath>
</defs>
</svg>
