<svg width="24" height="19" viewBox="0 0 24 19" fill="none" xmlns="http://www.w3.org/2000/svg">
<path d="M23.897 2.27866C23.0375 2.65566 22.1218 2.90555 21.167 3.02688C22.1492 2.44044 22.8989 1.51888 23.2513 0.408108C22.3355 0.954107 21.3244 1.33977 20.2469 1.555C19.3773 0.629108 18.138 0.0556641 16.786 0.0556641C14.1629 0.0556641 12.0511 2.18477 12.0511 4.79488C12.0511 5.17044 12.0829 5.53155 12.1609 5.87532C8.22188 5.68321 4.73644 3.79533 2.395 0.919441C1.98622 1.62866 1.74644 2.44044 1.74644 3.31433C1.74644 4.95521 2.59144 6.40977 3.851 7.25188C3.08977 7.23743 2.343 7.01643 1.71033 6.66832C1.71033 6.68277 1.71033 6.70154 1.71033 6.72032C1.71033 9.02276 3.35266 10.9352 5.50633 11.3758C5.12066 11.4812 4.70033 11.5318 4.26411 11.5318C3.96077 11.5318 3.65455 11.5144 3.36711 11.4509C3.981 13.3272 5.72299 14.7066 7.79433 14.7514C6.18233 16.0124 4.13555 16.7722 1.91978 16.7722C1.53122 16.7722 1.15855 16.7549 0.785889 16.7072C2.88466 18.0606 5.37199 18.8334 8.05432 18.8334C16.773 18.8334 21.5396 11.6112 21.5396 5.35099C21.5396 5.14155 21.5324 4.93932 21.5223 4.73855C22.4626 4.07121 23.2528 3.23777 23.897 2.27866Z" fill="#2F3234"/>
</svg>
