<svg width="19" height="20" viewBox="0 0 19 20" fill="none" xmlns="http://www.w3.org/2000/svg">
<path fill-rule="evenodd" clip-rule="evenodd" d="M0 2.2972C0 1.05491 1.01276 0.046875 2.26087 0.046875C3.50819 0.046875 4.52095 1.05491 4.52173 2.2972C4.52173 3.53949 3.50897 4.56861 2.26087 4.56861C1.01276 4.56861 0 3.53949 0 2.2972ZM18.5844 19.1386V19.1378H18.5891V12.138C18.5891 8.71369 17.8685 6.07585 13.9551 6.07585C12.0739 6.07585 10.8114 7.13194 10.296 8.13316H10.2416V6.39554H6.53115V19.1378H10.3947V12.8283C10.3947 11.167 10.7026 9.56064 12.7137 9.56064C14.6952 9.56064 14.7247 11.4565 14.7247 12.9349V19.1386H18.5844ZM0.502252 6.57825H4.01916V19.1386H0.502252V6.57825Z" fill="#2F3234"/>
</svg>
