<svg width="30" height="29" viewBox="0 0 30 29" fill="none" xmlns="http://www.w3.org/2000/svg">
<path d="M23.4036 28.6198C23.1412 28.6198 22.8843 28.5441 22.6639 28.4017L14.9764 23.421L7.28887 28.4017C7.05609 28.5498 6.78384 28.6238 6.50812 28.6139C6.23239 28.6041 5.96615 28.5108 5.74455 28.3464C5.52294 28.1821 5.3564 27.9544 5.26693 27.6934C5.17746 27.4324 5.16926 27.1504 5.24342 26.8846L7.65024 18.3619L0.46728 12.2869C0.265501 12.1109 0.120002 11.8794 0.0489252 11.6212C-0.0221517 11.3631 -0.0156617 11.0897 0.0675895 10.8353C0.150841 10.5808 0.307166 10.3564 0.517072 10.1902C0.726978 10.024 0.981168 9.92323 1.24795 9.90051L9.86615 9.28008L13.7423 0.798257C13.8507 0.560182 14.0254 0.358312 14.2454 0.216772C14.4655 0.0752315 14.7216 0 14.9832 0C15.2448 0 15.5009 0.0752315 15.7209 0.216772C15.941 0.358312 16.1156 0.560182 16.2241 0.798257L20.1002 9.28008L28.7184 9.90051C28.9852 9.92323 29.2394 10.024 29.4493 10.1902C29.6592 10.3564 29.8155 10.5808 29.8988 10.8353C29.9821 11.0897 29.9885 11.3631 29.9174 11.6212C29.8464 11.8794 29.7009 12.1109 29.4991 12.2869L22.3162 18.3619L24.723 26.8846C24.7984 27.1518 24.7906 27.4356 24.7004 27.6982C24.6102 27.9607 24.4421 28.1895 24.2184 28.3539C23.9825 28.5278 23.6967 28.6211 23.4036 28.6198ZM14.9764 20.438C15.2392 20.4391 15.496 20.516 15.7161 20.6596L21.1093 24.1505L19.4457 18.2596C19.3748 18.0076 19.3779 17.7405 19.4547 17.4903C19.5314 17.24 19.6786 17.0171 19.8786 16.8482L25.1764 12.3687L19.0911 11.9324C18.847 11.9146 18.6122 11.8315 18.4112 11.6918C18.2103 11.552 18.0506 11.3607 17.9491 11.138L14.9764 4.62666L12.0037 11.1312C11.9021 11.3539 11.7425 11.5452 11.5415 11.685C11.3406 11.8247 11.1057 11.9078 10.8616 11.9255L4.77638 12.3619L10.0741 16.8414C10.2741 17.0103 10.4213 17.2332 10.4981 17.4835C10.5749 17.7337 10.578 18.0008 10.5071 18.2528L8.84001 24.1437L14.2332 20.6528C14.455 20.511 14.7131 20.4364 14.9764 20.438Z" fill="#542686"/>
</svg>
