<svg width="31" height="23" viewBox="0 0 31 23" fill="none" xmlns="http://www.w3.org/2000/svg">
<path d="M24.7925 12.3611C25.0483 12.6391 25.1866 13.0052 25.1787 13.3828C25.1707 13.7605 25.0171 14.1205 24.7499 14.3875C24.7499 14.4035 24.7205 14.4168 24.7045 14.4328C24.4178 14.6954 24.0385 14.8334 23.65 14.8164C23.2615 14.7994 22.8957 14.6288 22.633 14.3421C20.0761 11.5586 17.4286 10.1908 14.7597 10.2735C10.4938 10.4094 7.41429 14.1795 7.38229 14.2168C7.13621 14.5113 6.78448 14.6976 6.40259 14.7357C6.02069 14.7738 5.63911 14.6607 5.33969 14.4206C5.04027 14.1805 4.84691 13.8325 4.80111 13.4515C4.75532 13.0704 4.86074 12.6867 5.09474 12.3825C5.25205 12.1852 9.02999 7.53796 14.6397 7.34333C18.2017 7.22068 21.6251 8.9084 24.7925 12.3611ZM12.6321 16.4937C12.0652 17.0609 11.7125 17.8071 11.6341 18.6051C11.5557 19.4032 11.7565 20.2038 12.2022 20.8704C12.6479 21.5371 13.311 22.0285 14.0784 22.2611C14.8459 22.4936 15.6702 22.4529 16.411 22.1458C17.1517 21.8387 17.7631 21.2842 18.1409 20.5768C18.5186 19.8695 18.6395 19.053 18.4828 18.2666C18.3261 17.4801 17.9015 16.7724 17.2814 16.2639C16.6614 15.7554 15.8842 15.4776 15.0823 15.4779C14.1647 15.4806 13.2848 15.8434 12.6321 16.4884V16.4937ZM14.4984 0.0112935C6.17189 0.331237 0.570189 7.34336 0.335564 7.64197C0.211029 7.79282 0.117961 7.96701 0.0617844 8.15438C0.00560834 8.34175 -0.0125282 8.53851 0.00847359 8.73299C0.0294754 8.92747 0.0891457 9.11574 0.184028 9.2868C0.278911 9.45785 0.407112 9.60825 0.56098 9.72904C0.714848 9.84982 0.891265 9.93858 1.07996 9.99012C1.26866 10.0417 1.46577 10.055 1.65968 10.0292C1.85358 10.0034 2.04039 9.93902 2.20906 9.83995C2.37773 9.74089 2.52484 9.60912 2.64179 9.45233C2.68979 9.391 7.62495 3.21072 14.6104 2.94144C18.9963 2.77347 23.3235 4.9811 27.4748 9.5003C27.7375 9.787 28.1033 9.95763 28.4918 9.97463C28.8803 9.99163 29.2596 9.85357 29.5464 9.59091C29.5624 9.57491 29.5784 9.5616 29.5917 9.5456C29.8589 9.27861 30.0125 8.91867 30.0205 8.54103C30.0284 8.16339 29.89 7.79734 29.6343 7.51934C24.8672 2.33359 19.7828 -0.191337 14.4984 0.0112935Z" fill="#542686"/>
</svg>
