<svg width="30" height="26" viewBox="0 0 30 26" fill="none" xmlns="http://www.w3.org/2000/svg">
<path d="M27.5217 0H2.47829C1.82128 0.000862786 1.19143 0.262272 0.726849 0.726849C0.262272 1.19143 0.000862786 1.82128 0 2.47829V16.9304C0 18.2967 1.11199 19.5652 2.47829 19.5652H10.7609V20.9055L8.27605 22.888C8.05562 23.0766 7.8955 23.3258 7.8155 23.6047C7.7355 23.8835 7.73917 24.1797 7.82609 24.4565C7.90952 24.7263 8.07302 24.9644 8.29492 25.1391C8.51681 25.3138 8.78663 25.417 9.0685 25.4348H20.8076C21.0928 25.4176 21.3662 25.3152 21.5924 25.1408C21.8185 24.9663 21.987 24.7279 22.0761 24.4565C22.1708 24.1898 22.1825 23.9006 22.1097 23.6271C22.037 23.3535 21.8832 23.1084 21.6685 22.9239L19.2163 20.9022V19.5652H27.4989C28.8652 19.5652 29.9772 18.2967 29.9772 16.9304V2.47829C29.9763 1.82521 29.7181 1.19874 29.2584 0.73481C28.7988 0.270881 28.1748 0.00686499 27.5217 0ZM17.3641 22.4217L18.15 23.1522H11.7391L12.587 22.4185C12.7278 22.2962 12.8418 22.1462 12.9221 21.9779C13.0023 21.8096 13.047 21.6266 13.0533 21.4402V19.5652H16.9663V21.45C16.9617 21.6307 16.9946 21.8104 17.0631 21.9777C17.1316 22.145 17.2341 22.2962 17.3641 22.4217ZM27.3913 16.9565H2.6087V2.6087H27.3913V16.9565Z" fill="#542686"/>
</svg>
